<svg xmlns="http://www.w3.org/2000/svg" width="480" height="150" fill="none" viewBox="0 0 480 150">
  <path fill="#000" d="M22.5 22.5h60v60h-60v-60z"/>
  <path fill="#fff" d="M29.98 71.16h22.5v3.75h-22.5v-3.75zM30 29.94h8.8c7.1 0 12 4.87 12 11.22v.07c0 6.35-4.9 11.28-12 11.28H30V29.94zm5 4.48V48h3.83a6.429 6.429 0 006.81-6.74v-.06a6.49 6.49 0 00-6.81-6.81l-3.83.03zM53.16 41.29v-.06A11.591 11.591 0 0165 29.55a12.38 12.38 0 018.87 3.1l-3.13 3.77a8.32 8.32 0 00-5.9-2.29 6.78 6.78 0 00-6.48 7v.07c0 4.12 2.84 7.16 6.84 7.16A8 8 0 0069.86 47v-3.19h-5v-4.29h9.81v9.8A14.67 14.67 0 0165 52.9c-7 0-11.84-4.9-11.84-11.61z"/>
  <path fill="#000" d="M105.06 22.51h23.35c18.82 0 31.82 12.91 31.82 29.76v.17c0 16.85-13 29.94-31.82 29.94h-23.35V22.51zm13.18 11.89v36.09h10.17c10.78 0 18.05-7.27 18.05-17.88v-.17c0-10.6-7.27-18-18.05-18l-10.17-.04zM161.79 69.21V69c0-10 7.61-14.63 18.47-14.63a32.59 32.59 0 0111.2 1.88v-.77c0-5.39-3.33-8.38-9.83-8.38-4.333.02-8.621.876-12.63 2.52l-3.25-9.92a40.517 40.517 0 0117.76-3.7c7.1 0 12.23 1.88 15.48 5.13 3.42 3.42 5 8.47 5 14.63v26.6h-12.61v-5c-3.17 3.51-7.53 5.81-13.86 5.81-8.64.06-15.73-4.9-15.73-13.96zm29.85-3V63.9a20.32 20.32 0 00-8.3-1.71c-5.56 0-9 2.23-9 6.33v.17c0 3.51 2.91 5.56 7.1 5.56 6.09 0 10.2-3.33 10.2-8.04zM213 69.38V47.65h-5.5V36.53h5.5V24.82h13v11.71h10.78v11.12H226v19.59c0 3 1.29 4.45 4.2 4.45 2.24.01 4.447-.55 6.41-1.63V80.5a19.21 19.21 0 01-10.26 2.65C218.36 83.15 213 80 213 69.38zM241.17 69.21V69c0-10 7.62-14.63 18.48-14.63a32.59 32.59 0 0111.2 1.88v-.77c0-5.39-3.33-8.38-9.83-8.38-4.34.004-8.639.846-12.66 2.48l-3.25-9.92A40.46 40.46 0 01262.9 36c7.1 0 12.23 1.88 15.48 5.13 3.42 3.42 5 8.47 5 14.63v26.6h-12.61v-5c-3.17 3.51-7.53 5.81-13.86 5.81-8.64.06-15.74-4.9-15.74-13.96zm29.85-3V63.9a20.23 20.23 0 00-8.29-1.71c-5.56 0-9 2.23-9 6.33v.17c0 3.51 2.9 5.56 7.1 5.56 6.09 0 10.17-3.33 10.17-8.04h.02zM288.64 52.61v-.17c0-17 13.26-31 31.39-31 10.77 0 17.28 2.91 23.52 8.21l-8.3 10c-4.62-3.85-8.72-6.07-15.65-6.07-9.58 0-17.19 8.46-17.19 18.64v.17c0 11 7.53 19 18.13 19a21 21 0 0012.4-3.59v-8.51h-13.25V47.91h26v26a38.868 38.868 0 01-25.58 9.5c-18.64 0-31.47-13.09-31.47-30.8zM352.64 36.53h13v9.24c2.65-6.33 6.93-10.43 14.62-10.09v13.6h-.68c-8.64 0-13.94 5.22-13.94 16.16v16.94h-13V36.53zM386.44 19.94h13.69v11.55h-13.69V19.94zm.35 16.59h13v45.85h-13V36.53zM407.24 36.53h13v6.59c3.16-4.28 7.52-7.44 14.28-7.44 10.69 0 20.87 8.38 20.87 23.69v.17c0 15.31-10 23.69-20.87 23.69a17.57 17.57 0 01-14.28-6.84v19.67h-13V36.53zm35.16 23v-.17c0-7.61-5.13-12.66-11.21-12.66-6.08 0-11.12 5-11.12 12.66v.17c0 7.62 5.05 12.66 11.12 12.66 6.07 0 11.21-4.95 11.21-12.65v-.01zM107.51 124.41v3.07h-2.39v-22.63h2.39v9.82a7.205 7.205 0 016.14-3.56c3.84 0 7.65 3 7.65 8.31v.06c0 5.24-3.78 8.34-7.65 8.34a7.223 7.223 0 01-6.14-3.41zm11.35-4.9v-.06c0-3.78-2.61-6.2-5.65-6.2a6 6 0 00-5.8 6.17v.06a5.997 5.997 0 005.8 6.2c3.1 0 5.65-2.29 5.65-6.17zM136.52 111.45h2.54L132.34 128c-1.37 3.32-2.92 4.52-5.34 4.52a7.266 7.266 0 01-3.41-.8l.81-1.89a5 5 0 002.51.59c1.43 0 2.32-.75 3.29-3l-7.29-16h2.63l5.83 13.36 5.15-13.33zM150.44 124l1.76-1.52c1.34 2 2.7 3.1 5 3.1 2.45 0 4.24-1.77 4.24-5.21v-14.59h2.48v14.51a7.821 7.821 0 01-2 5.7 6.66 6.66 0 01-4.78 1.8 7.425 7.425 0 01-6.7-3.79zM168.32 119.51v-.06c0-4.62 3.25-8.34 7.69-8.34 4.74 0 7.47 3.78 7.47 8.46.016.26.016.52 0 .78h-12.74a5.597 5.597 0 005.64 5.43 6.612 6.612 0 005.05-2.27l1.49 1.33a8.256 8.256 0 01-6.6 3 7.992 7.992 0 01-5.777-2.459 8 8 0 01-2.223-5.871zm12.74-.93c-.25-2.91-1.92-5.46-5.11-5.46-2.8 0-4.9 2.33-5.21 5.46h10.32zM187.91 123.23v-9.67h-2.23v-2.11h2.23v-4.84h2.39v4.84h5.08v2.11h-5.08v9.36a2.37 2.37 0 002.7 2.67 5.06 5.06 0 002.32-.56v2a6.073 6.073 0 01-2.88.68c-2.58.05-4.53-1.22-4.53-4.48zM199.3 105.78h9.24a7.998 7.998 0 015.68 1.92 4.812 4.812 0 011.39 3.47v.06a5.247 5.247 0 01-3.44 5c2.57.77 4.65 2.26 4.65 5.24v.06c0 3.72-3.13 5.92-7.88 5.92h-9.64v-21.67zm13.83 5.73c0-2.14-1.7-3.53-4.81-3.53h-6.6v7.47h6.42c2.94 0 5-1.33 5-3.88l-.01-.06zm-4.56 6.11h-6.85v7.66H209c3.28 0 5.33-1.46 5.33-3.88v-.06c.01-2.34-1.97-3.72-5.76-3.72zM221.35 111.45h2.39v4.19a6.852 6.852 0 012.56-3.274 6.851 6.851 0 013.98-1.196v2.58h-.19c-3.5 0-6.35 2.51-6.35 7.34v6.39h-2.39v-16.03zM232.19 122.83v-.06c0-3.38 2.79-5.18 6.85-5.18a17.165 17.165 0 014.93.68v-.56c0-2.88-1.77-4.37-4.78-4.37-1.689.02-3.35.423-4.86 1.18l-.72-2a13.218 13.218 0 015.83-1.34 7.003 7.003 0 015.18 1.77 6.317 6.317 0 011.64 4.68v9.8H244v-2.42a7.005 7.005 0 01-5.8 2.76c-3.01.05-6.01-1.65-6.01-4.94zm11.81-1.24V120a16.802 16.802 0 00-4.71-.68c-3 0-4.69 1.3-4.69 3.31v.07c0 2 1.86 3.19 4 3.19 2.98.04 5.4-1.76 5.4-4.3zM251.08 105.31h2.73V108h-2.73v-2.69zm.16 6.14h2.38v16h-2.38v-16zM258.78 111.45h2.39v2.79a6.066 6.066 0 015.49-3.13c3.88 0 6.14 2.6 6.14 6.42v10h-2.39v-9.36c0-3-1.61-4.84-4.43-4.84a4.709 4.709 0 00-3.5 1.447 4.722 4.722 0 00-1.31 3.553v9.18h-2.39v-16.06zM276.25 125.43l1.21-1.7a9.399 9.399 0 005.55 2c1.93 0 3.32-1 3.32-2.55v-.06c0-1.61-1.89-2.23-4-2.82-2.51-.71-5.3-1.58-5.3-4.53v-.06c0-2.76 2.29-4.59 5.46-4.59 2.048.037 4.044.65 5.76 1.77l-1.08 1.8a9.076 9.076 0 00-4.74-1.55c-1.9 0-3.11 1-3.11 2.32v.06c0 1.52 2 2.11 4.13 2.76 2.48.75 5.15 1.71 5.15 4.59v.13c0 3-2.52 4.81-5.71 4.81a10.997 10.997 0 01-6.64-2.38z"/>
</svg>