<?xml version="1.0" standalone="no"?>
<!DOCTYPE svg PUBLIC "-//W3C//DTD SVG 20010904//EN" "http://www.w3.org/TR/2001/REC-SVG-20010904/DTD/svg10.dtd">
<!-- Created using Krita: https://krita.org -->
<svg xmlns="http://www.w3.org/2000/svg" 
    xmlns:xlink="http://www.w3.org/1999/xlink"
    xmlns:krita="http://krita.org/namespaces/svg/krita"
    xmlns:sodipodi="http://sodipodi.sourceforge.net/DTD/sodipodi-0.dtd"
    width="1036.8pt"
    height="91.44pt"
    viewBox="0 0 1036.8 91.44">
<defs/>
<path id="shape0" transform="matrix(0.72 0 0 0.72 0 -84.0504170516816)" fill="#ffffff" stroke-opacity="0" stroke="#000000" stroke-width="0" stroke-linecap="square" stroke-linejoin="bevel" d="M0 158.737L120 166.937C240 174.737 480 191.737 720 175.037C960 158.737 1200 109.737 1440 117.937C1680 125.737 1920 191.737 2160 207.737C2400 223.737 2640 191.737 2880 142.437C3120 93.7367 3360 27.7367 3600 52.5367C3840 76.7367 4080 191.737 4320 232.237C4560 272.737 4800 240.737 5040 256.737C5280 272.737 5520 338.737 5760 346.537C6000 354.737 6240 305.737 6480 264.937C6720 223.737 6960 191.737 7200 183.237C7440 174.737 7680 191.737 7920 191.437C8160 191.737 8400 174.737 8640 166.937C8880 158.737 9120 158.737 9360 191.437C9600 223.737 9840 289.737 10080 313.937C10320 338.737 10560 321.737 10800 256.737C11040 191.737 11280 76.7367 11520 28.0367C11760 -21.2633 12000 -4.2633 12240 68.9367C12480 142.737 12720 272.737 12960 273.037C13200 272.737 13440 142.737 13680 93.4367C13920 44.7367 14160 76.7367 14400 93.4367C14640 109.737 14880 109.737 15120 142.437C15360 174.737 15600 240.737 15840 281.237C16080 321.737 16320 338.737 16560 289.437C16800 240.737 17040 125.737 17160 68.9367L17280 11.7367L17280 452.737L17160 452.737C17040 452.737 16800 452.737 16560 452.737C16320 452.737 16080 452.737 15840 452.737C15600 452.737 15360 452.737 15120 452.737C14880 452.737 14640 452.737 14400 452.737C14160 452.737 13920 452.737 13680 452.737C13440 452.737 13200 452.737 12960 452.737C12720 452.737 12480 452.737 12240 452.737C12000 452.737 11760 452.737 11520 452.737C11280 452.737 11040 452.737 10800 452.737C10560 452.737 10320 452.737 10080 452.737C9840 452.737 9600 452.737 9360 452.737C9120 452.737 8880 452.737 8640 452.737C8400 452.737 8160 452.737 7920 452.737C7680 452.737 7440 452.737 7200 452.737C6960 452.737 6720 452.737 6480 452.737C6240 452.737 6000 452.737 5760 452.737C5520 452.737 5280 452.737 5040 452.737C4800 452.737 4560 452.737 4320 452.737C4080 452.737 3840 452.737 3600 452.737C3360 452.737 3120 452.737 2880 452.737C2640 452.737 2400 452.737 2160 452.737C1920 452.737 1680 452.737 1440 452.737C1200 452.737 960 452.737 720 452.737C480 452.737 240 452.737 120 452.737L0 452.737Z" sodipodi:nodetypes="ccccccccccccccccccccccccccccccccccccccccccccccccccccccc"/>
</svg>
